<svg width="175" height="30" viewBox="0 0 175 30" fill="none" xmlns="http://www.w3.org/2000/svg">
<path d="M21.1618 25.8506V29.751H18.7967C17.3859 29.751 16.39 29.4606 15.8091 28.8797C15.1867 28.2988 14.8963 27.4689 14.8963 26.3485C13.278 28.7967 10.9544 30 7.88382 30C5.47718 30 3.56846 29.4606 2.15768 28.3402C0.705394 27.2614 0 25.7261 0 23.7759C0 21.6183 0.746888 19.917 2.32365 18.7552C3.85892 17.5934 6.09959 16.971 9.08714 16.971H14.4398V15.6846C14.4398 14.5228 14.0249 13.5685 13.195 12.9046C12.3651 12.2407 11.2033 11.8672 9.75104 11.8672C8.42324 11.8672 7.3444 12.1577 6.51452 12.7386C5.68465 13.3195 5.18672 14.0664 5.02075 14.9793H0.622407C0.829876 12.8631 1.78423 11.2033 3.44398 10.0415C5.10373 8.87967 7.26141 8.25726 9.95851 8.25726C12.7801 8.25726 14.9793 8.92116 16.556 10.249C18.0913 11.5768 18.8797 13.4855 18.8797 15.9751V24.3568C18.8797 25.3527 19.3361 25.8506 20.2905 25.8506H21.1618ZM14.4398 20.2905H8.87967C7.46888 20.2905 6.43154 20.5809 5.68465 21.1203C4.93776 21.6598 4.56432 22.4481 4.56432 23.4855C4.56432 24.3983 4.89627 25.1452 5.60166 25.6846C6.30705 26.2656 7.26141 26.5145 8.50622 26.5145C10.3319 26.5145 11.7842 26.0166 12.8216 25.0207C13.8589 24.0249 14.3983 22.6971 14.4398 21.0373V20.2905Z" fill="#FFFAEF"/>
<path d="M22.7729 0.705393H27.2543V29.751H22.7729V0.705393Z" fill="#FFFAEF"/>
<path d="M47.2073 27.9253C45.4645 29.3361 43.2654 30 40.6098 30C38.4936 30 36.6264 29.5851 35.0496 28.6722C33.4313 27.7593 32.1865 26.473 31.3152 24.8133C30.4438 23.1535 30.0288 21.2448 30.0288 19.0871C30.0288 16.9295 30.4438 15.0622 31.3566 13.4025C32.228 11.7842 33.4728 10.5394 35.0911 9.62656C36.7093 8.71369 38.5766 8.25726 40.7342 8.25726C43.3898 8.25726 45.5475 8.96265 47.2488 10.3734C48.9085 11.7842 49.9874 13.6515 50.4023 16.0581H45.7965C45.4645 14.8548 44.8836 13.9004 43.9708 13.1535C43.0579 12.4481 41.9376 12.0747 40.6098 12.0747C38.784 12.0747 37.3318 12.7386 36.2529 14.0249C35.1741 15.3527 34.6347 17.0124 34.6347 19.0871C34.6347 21.2033 35.1741 22.9046 36.2529 24.2324C37.3318 25.5602 38.784 26.1826 40.6098 26.1826C41.9791 26.1826 43.1409 25.8506 44.0537 25.1037C44.9666 24.3568 45.5475 23.361 45.838 22.1162H50.4023C49.9874 24.6058 48.9085 26.5145 47.2073 27.9253Z" fill="#FFFAEF"/>
<path d="M70.5099 10.5809C72.0867 12.1577 72.9166 14.6473 72.9166 18.0498V29.751H68.4352V18.2988C68.4352 16.3071 67.9788 14.7718 67.1074 13.6929C66.2361 12.6556 64.9912 12.1162 63.3315 12.1162C61.5473 12.1162 60.1365 12.7386 59.1406 13.9834C58.1448 15.2282 57.6468 16.888 57.6468 19.0041V29.751H53.1655V0.705393H57.6468V11.5768C59.2236 9.37759 61.4643 8.25726 64.3273 8.25726C66.8585 8.25726 68.9332 9.04564 70.5099 10.5809Z" fill="#FFFAEF"/>
<path d="M76.6601 13.444C77.5314 11.7842 78.7348 10.5394 80.3115 9.62656C81.8883 8.71369 83.6725 8.25726 85.7057 8.25726C87.7389 8.25726 89.5231 8.6722 91.0999 9.50207C92.6767 10.332 93.88 11.5353 94.7928 13.029C95.7057 14.5643 96.1621 16.3485 96.2036 18.3817C96.2036 18.9627 96.1621 19.5021 96.0792 20.083H80.0626V20.332C80.1455 22.1992 80.7265 23.6515 81.8053 24.7303C82.8426 25.8091 84.2534 26.3485 85.9962 26.3485C87.3655 26.3485 88.5273 26.0581 89.4816 25.3942C90.3945 24.7303 91.0169 23.8174 91.3489 22.6141H95.8302C95.4153 24.7718 94.3779 26.556 92.6767 27.9253C90.9754 29.3361 88.8592 30 86.3281 30C84.0875 30 82.1787 29.5851 80.519 28.6722C78.8592 27.7593 77.6144 26.5145 76.7016 24.8548C75.7887 23.2365 75.3738 21.3278 75.3738 19.1701C75.3738 17.0124 75.7887 15.1037 76.6601 13.444ZM91.6393 16.805C91.4319 15.2697 90.8094 14.0664 89.7721 13.195C88.7348 12.3237 87.4484 11.8672 85.8717 11.8672C84.3779 11.8672 83.1331 12.3237 82.0543 13.2365C80.9754 14.1494 80.3945 15.3112 80.2285 16.805H91.6393Z" fill="#FFFAEF"/>
<path d="M129.204 10.5394C130.656 12.0332 131.403 14.4398 131.403 17.7593V29.751H126.922V17.8008C126.922 15.9751 126.549 14.5643 125.802 13.5685C125.055 12.6141 123.934 12.1162 122.482 12.1162C120.905 12.1162 119.702 12.6971 118.789 13.7759C117.876 14.8548 117.461 16.3485 117.461 18.2573V29.751H112.939V17.8008C112.939 15.9336 112.524 14.5228 111.777 13.5685C111.03 12.6141 109.91 12.1162 108.457 12.1162C106.922 12.1162 105.719 12.6971 104.806 13.8174C103.893 14.9793 103.478 16.473 103.478 18.3817V29.751H98.9967V8.50622H102.897L103.395 11.2863C104.889 9.2946 106.963 8.29875 109.619 8.25726C111.113 8.25726 112.399 8.58921 113.561 9.21162C114.681 9.87552 115.553 10.8299 116.175 12.1162C116.922 10.9129 117.876 9.95851 119.121 9.2946C120.324 8.63071 121.777 8.25726 123.52 8.25726C125.843 8.25726 127.71 9.04564 129.204 10.5394Z" fill="#FFFAEF"/>
<path d="M138.827 0.788381C139.325 1.28631 139.615 1.95021 139.615 2.6971C139.615 3.48548 139.325 4.14938 138.827 4.6473C138.287 5.14523 137.624 5.39419 136.877 5.39419C136.088 5.39419 135.424 5.14523 134.926 4.6473C134.387 4.14938 134.138 3.48548 134.138 2.6971C134.138 1.95021 134.387 1.28631 134.926 0.788381C135.424 0.290455 136.088 0 136.877 0C137.624 0 138.287 0.290455 138.827 0.788381ZM134.636 8.50622H139.117V29.751H134.636V8.50622Z" fill="#FFFAEF"/>
<path d="M146.249 22.7386C146.332 23.8589 146.83 24.7718 147.784 25.4772C148.738 26.1826 149.983 26.5145 151.518 26.5145C152.846 26.5145 153.967 26.2656 154.796 25.7676C155.626 25.2697 156.083 24.5643 156.083 23.6929C156.083 22.9876 155.875 22.4481 155.502 22.0747C155.087 21.7427 154.589 21.4938 153.925 21.3278C153.261 21.1618 152.265 20.9959 150.937 20.8299C149.07 20.6224 147.535 20.3319 146.332 19.9585C145.128 19.5851 144.174 19.0041 143.427 18.1743C142.68 17.3444 142.348 16.2656 142.348 14.8548C142.348 13.5685 142.68 12.4066 143.427 11.4108C144.174 10.4149 145.17 9.62656 146.456 9.04564C147.742 8.50622 149.195 8.21577 150.855 8.21577C153.51 8.21577 155.709 8.83817 157.369 10C159.029 11.2033 159.942 12.8631 160.108 15.0207H155.751C155.626 14.0664 155.128 13.278 154.298 12.6556C153.427 12.0332 152.348 11.7012 151.062 11.7012C149.734 11.7012 148.697 11.9502 147.908 12.4481C147.079 12.9461 146.705 13.6515 146.705 14.4813C146.705 15.1452 146.871 15.6017 147.286 15.9336C147.701 16.2656 148.199 16.473 148.821 16.5975C149.402 16.722 150.398 16.8465 151.767 17.0124C153.593 17.2199 155.128 17.5104 156.373 17.9253C157.618 18.3402 158.614 18.9627 159.361 19.834C160.108 20.7054 160.481 21.8672 160.481 23.361C160.481 24.6888 160.066 25.8921 159.319 26.888C158.531 27.8838 157.452 28.6722 156.124 29.2116C154.755 29.751 153.22 30 151.56 30C148.697 30 146.373 29.3776 144.63 28.0913C142.888 26.805 141.975 25.0207 141.933 22.7386H146.249Z" fill="#FFFAEF"/>
<path d="M164.655 12.4481H160.962V8.50622H164.655V2.57261H169.178V8.50622H174.282V12.4481H169.178V23.527C169.178 24.3568 169.344 24.9793 169.676 25.3112C170.008 25.6432 170.548 25.8091 171.377 25.8091H174.78V29.751H170.465C168.431 29.751 166.938 29.2946 166.025 28.3402C165.112 27.4274 164.655 25.9751 164.655 23.9834V12.4481Z" fill="#FFFAEF"/>
</svg>
