<svg width="132" height="16" viewBox="0 0 132 16" fill="none" xmlns="http://www.w3.org/2000/svg">
<path d="M26.3339 0H37.3339L27.8339 16H16.8339L26.3339 0Z" fill="#FF2B00"/>
<path d="M17.3341 0H24.3342L14.8341 16H7.83414L17.3341 0Z" fill="#FD5842"/>
<path d="M10.3339 0H15.3339L5.8339 16H0.833893L10.3339 0Z" fill="#FF9D90"/>
<path fill-rule="evenodd" clip-rule="evenodd" d="M50.3189 4.61488C51.7311 4.61488 52.832 4.94833 53.6213 5.6146C54.3898 6.28111 54.7846 7.23998 54.7846 8.48968V12.697C54.7847 13.1967 55.0139 13.4466 55.4915 13.4466H55.9277V15.4043H54.743C54.0371 15.4043 53.5388 15.2584 53.248 14.967C52.9365 14.6755 52.7907 14.2589 52.7906 13.6968C51.9805 14.9254 50.8173 15.5294 49.2803 15.5294C48.0758 15.5294 47.1203 15.2587 46.4141 14.6965C45.6871 14.155 45.334 13.384 45.3339 12.4052C45.3339 11.3221 45.7079 10.4682 46.4973 9.88502C47.2658 9.30186 48.3873 8.98903 49.8828 8.98903H52.5624V8.34323C52.5624 7.76017 52.354 7.2811 51.9387 6.9479C51.5233 6.61488 50.9421 6.42725 50.2155 6.42719C49.5508 6.42719 49.0101 6.57291 48.5947 6.8645C48.1793 7.15607 47.9303 7.53117 47.8472 7.98931H45.6453C45.7492 6.92713 46.2273 6.09404 47.0581 5.51087C47.889 4.92778 48.9689 4.61489 50.3189 4.61488ZM49.7793 10.6559C49.0733 10.6559 48.5537 10.8013 48.1799 11.0719C47.806 11.3426 47.619 11.739 47.619 12.2597C47.6191 12.7177 47.7853 13.0925 48.1383 13.3632C48.4913 13.6546 48.9688 13.7801 49.5917 13.7802C50.5057 13.7802 51.2328 13.5295 51.752 13.0296C52.2713 12.5297 52.5417 11.8633 52.5624 11.0302V10.6559H49.7793Z" fill="#262626"/>
<path d="M65.3094 4.61488C66.6388 4.61488 67.7196 4.96949 68.5712 5.67766C69.4019 6.3858 69.9417 7.32345 70.1494 8.53138H67.844C67.6778 7.92741 67.3871 7.44789 66.9302 7.07299C66.4732 6.71892 65.9122 6.53196 65.2475 6.53194C64.3337 6.53194 63.607 6.86482 63.0669 7.5103C62.5269 8.17681 62.2565 9.01039 62.2565 10.0518C62.2566 11.1139 62.5269 11.9676 63.0669 12.634C63.607 13.3004 64.3336 13.6134 65.2475 13.6134C65.933 13.6134 66.5148 13.4462 66.9717 13.0713C67.4285 12.6965 67.7189 12.1968 67.8643 11.5722H70.1494C69.9416 12.8218 69.4015 13.7799 68.5499 14.488C67.6775 15.196 66.5768 15.5294 65.2475 15.5294C64.1884 15.5294 63.2537 15.3213 62.4645 14.8633C61.6544 14.405 61.0304 13.759 60.5942 12.9259C60.1581 12.0928 59.9512 11.1347 59.9512 10.0518C59.9512 8.96875 60.1585 8.03121 60.6155 7.19808C61.0517 6.38578 61.6746 5.7606 62.4847 5.30238C63.2947 4.84422 64.2294 4.61494 65.3094 4.61488Z" fill="#262626"/>
<path fill-rule="evenodd" clip-rule="evenodd" d="M87.4067 4.61488C88.4245 4.61488 89.3183 4.82378 90.1076 5.24034C90.8967 5.6569 91.4987 6.26126 91.9556 7.01095C92.4124 7.78144 92.6417 8.67656 92.6625 9.69687C92.6625 9.98842 92.6411 10.2596 92.5996 10.5512H84.582V10.6762C84.6236 11.6135 84.9142 12.3426 85.4543 12.8842C85.9736 13.4257 86.6803 13.6968 87.5527 13.6968C88.238 13.6967 88.8196 13.5509 89.2972 13.2177C89.7542 12.8845 90.0662 12.4254 90.2324 11.8214H92.4748C92.2671 12.9045 91.7483 13.8007 90.8967 14.488C90.045 15.1962 88.9851 15.5294 87.7181 15.5294C86.5966 15.5293 85.641 15.3214 84.8102 14.8633C83.9794 14.405 83.3564 13.7793 82.8994 12.9462C82.4426 12.1341 82.2351 11.1763 82.2351 10.0935C82.2351 9.01043 82.4429 8.05156 82.8791 7.21842C83.3153 6.38552 83.9176 5.76052 84.7068 5.30238C85.496 4.84428 86.3891 4.61492 87.4067 4.61488ZM87.4898 6.42719C86.7421 6.42723 86.119 6.6565 85.579 7.11469C85.039 7.57286 84.7483 8.15595 84.6652 8.90564H90.3774C90.2735 8.1351 89.9615 7.53068 89.4423 7.09333C88.923 6.65616 88.279 6.42719 87.4898 6.42719Z" fill="#262626"/>
<path d="M119.397 4.59454C120.726 4.59454 121.828 4.90734 122.659 5.49053C123.489 6.09452 123.946 6.92782 124.029 8.01067H121.848C121.786 7.53162 121.537 7.13523 121.121 6.82281C120.685 6.51052 120.145 6.34387 119.501 6.3438C118.837 6.3438 118.317 6.46913 117.922 6.71907C117.507 6.96893 117.32 7.32278 117.32 7.73913C117.32 8.07236 117.403 8.3017 117.611 8.46832C117.819 8.63495 118.068 8.73942 118.38 8.8019C118.67 8.86436 119.169 8.92711 119.854 9.01039C120.768 9.11452 121.537 9.2598 122.16 9.46804C122.783 9.67633 123.282 9.98867 123.656 10.4261C124.03 10.8634 124.217 11.4469 124.217 12.1967C124.217 12.8632 124.008 13.4674 123.634 13.9673C123.24 14.4671 122.7 14.863 122.035 15.1338C121.35 15.4045 120.581 15.5294 119.75 15.5294C118.317 15.5294 117.153 15.217 116.281 14.5714C115.409 13.9257 114.952 13.0299 114.931 11.8845H117.091C117.133 12.4468 117.383 12.9054 117.86 13.2594C118.338 13.6133 118.961 13.7802 119.73 13.7802C120.394 13.7801 120.955 13.6548 121.371 13.4049C121.786 13.155 122.015 12.8008 122.015 12.3635C122.015 12.0094 121.91 11.7383 121.724 11.5509C121.516 11.3843 121.267 11.2599 120.934 11.1766C120.602 11.0933 120.103 11.0097 119.438 10.9264C118.504 10.8223 117.735 10.6765 117.133 10.4891C116.531 10.3017 116.053 10.0097 115.679 9.59314C115.305 9.17666 115.139 8.63517 115.139 7.92728C115.139 7.2817 115.305 6.69819 115.679 6.19837C116.053 5.69851 116.551 5.30209 117.195 5.0105C117.839 4.73975 118.566 4.59457 119.397 4.59454Z" fill="#262626"/>
<path d="M58.7696 15.4043H56.5261V0.8245H58.7696V15.4043Z" fill="#262626"/>
<path d="M73.5684 6.28176C74.3576 5.17795 75.4793 4.61498 76.9123 4.61488C78.1794 4.61488 79.2185 5.01079 80.0078 5.78139C80.7971 6.57287 81.2127 7.82318 81.2127 9.5311V15.4043H78.9692V9.65619C78.9692 8.65648 78.741 7.88505 78.3049 7.34351C77.8687 6.82284 77.2451 6.55232 76.4143 6.55228C75.5212 6.55228 74.8144 6.86512 74.3159 7.48996C73.8176 8.11477 73.5684 8.94811 73.5684 10.0101V15.4043H71.3249V0.8245H73.5684V6.28176Z" fill="#262626"/>
<path d="M106.129 4.61488C107.292 4.61488 108.227 5.01123 108.975 5.76105C109.701 6.51084 110.075 7.71867 110.075 9.38465V15.4043H107.831V9.40601C107.831 8.48978 107.645 7.78134 107.272 7.28148C106.898 6.80243 106.336 6.55228 105.609 6.55228C104.82 6.55231 104.217 6.84371 103.76 7.38521C103.303 7.92673 103.096 8.6768 103.096 9.63483V15.4043H100.832V9.40601C100.832 8.46873 100.624 7.76053 100.25 7.28148C99.8761 6.80246 99.3156 6.55231 98.5887 6.55228C97.8201 6.55228 97.218 6.84421 96.761 7.40657C96.3041 7.98966 96.0958 8.73902 96.0957 9.69687V15.4043H93.8522V4.73998H95.8056L96.0541 6.13531C96.8018 5.1357 97.8407 4.63579 99.1699 4.61488C99.9176 4.61488 100.562 4.78151 101.144 5.0939C101.704 5.42714 102.14 5.90664 102.452 6.55228C102.826 5.94828 103.304 5.46884 103.927 5.13559C104.529 4.80236 105.256 4.6149 106.129 4.61488Z" fill="#262626"/>
<path d="M113.729 15.4043H111.486V4.73998H113.729V15.4043Z" fill="#262626"/>
<path d="M128.362 4.73998H130.917V6.71907H128.362V12.2801C128.362 12.6966 128.445 13.0094 128.611 13.1761C128.777 13.3426 129.048 13.4252 129.463 13.4252H131.166V15.4043H129.006C127.988 15.4043 127.241 15.1753 126.784 14.6965C126.327 14.2383 126.098 13.5087 126.098 12.5089V6.71907H124.249V4.73998H126.098V1.76218H128.362V4.73998Z" fill="#262626"/>
<path d="M112.608 0.470581C112.981 0.470589 113.314 0.616264 113.584 0.866197C113.833 1.1161 113.979 1.44946 113.979 1.82422C113.979 2.21993 113.833 2.55366 113.584 2.8036C113.314 3.05353 112.981 3.17785 112.608 3.17785C112.213 3.17785 111.88 3.05353 111.631 2.8036C111.361 2.55366 111.236 2.21994 111.236 1.82422C111.236 1.44944 111.361 1.1161 111.631 0.866197C111.88 0.616257 112.213 0.470581 112.608 0.470581Z" fill="#262626"/>
</svg>
