<svg width="17" height="17" viewBox="0 0 17 17" fill="none" xmlns="http://www.w3.org/2000/svg">
<path d="M4.08047 16.5H0.764414V5.81255H4.08047V16.5Z" fill="#8A8882"/>
<path d="M12.5223 5.5468C15.8802 5.5468 16.5 7.76028 16.5 10.6377V16.4996H13.1863V11.3022C13.1863 10.063 13.1637 8.46883 11.4632 8.46883C9.73808 8.46883 9.47312 9.81893 9.47312 11.2128V16.4998H6.16V5.81255H9.34057V7.27287H9.38492C9.82765 6.43274 10.9093 5.5468 12.5223 5.5468Z" fill="#8A8882"/>
<path d="M2.42307 0.5C3.4832 0.500003 4.34474 1.36304 4.34475 2.42534C4.34475 3.4885 3.48336 4.35154 2.42322 4.35154C1.36017 4.35154 0.5 3.4885 0.5 2.42534C0.500173 1.36321 1.36035 0.5 2.42307 0.5Z" fill="#8A8882"/>
</svg>
