<svg width="18" height="17" viewBox="0 0 18 17" fill="none" xmlns="http://www.w3.org/2000/svg">
<path d="M8.8335 0C4.14655 0 0.333496 3.81309 0.333496 8.5C0.333496 13.1869 4.14655 17 8.8335 17C13.5204 17 17.3335 13.1869 17.3335 8.5C17.3335 3.81309 13.5204 0 8.8335 0ZM14.3726 4.0088C15.3268 5.18342 15.9143 6.66602 15.9632 8.28218C14.1955 7.91624 12.595 7.95919 11.182 8.23623C10.9261 7.63792 10.6613 7.0679 10.394 6.52917C11.9328 5.86626 13.2724 5.01955 14.3726 4.0088ZM13.4151 3.03562C12.323 4.03246 11.0574 4.77053 9.76153 5.31543C8.81039 3.57607 7.90036 2.26625 7.346 1.52191C7.82603 1.41964 8.32344 1.36477 8.8335 1.36477C10.5765 1.36477 12.1746 1.99385 13.4151 3.03562ZM5.96759 1.96764C6.38621 2.51009 7.3833 3.86832 8.45437 5.80075C5.76251 6.67775 3.15054 6.82551 1.89542 6.83925C2.41858 4.65379 3.94902 2.85675 5.96759 1.96764ZM1.70572 8.20748C1.71918 8.20748 1.73219 8.20757 1.74593 8.20757C2.61319 8.20757 4.20214 8.14925 6.07277 7.80815C7.14001 7.61353 8.15203 7.35159 9.10163 7.02695C9.34883 7.51964 9.59458 8.03934 9.83286 8.58407C8.50322 9.01216 7.38194 9.62812 6.49375 10.2397C5.00434 11.2654 3.96094 12.4033 3.3912 13.1069C2.33633 11.8629 1.69826 10.255 1.69826 8.5C1.69826 8.40192 1.70171 8.30466 1.70572 8.20748ZM4.37464 14.0646C4.86514 13.4469 5.8635 12.3228 7.30769 11.3365C8.28914 10.6661 9.30452 10.168 10.3498 9.84112C10.9563 11.4132 11.4741 13.1502 11.7828 14.9945C10.8832 15.4047 9.88509 15.6352 8.8335 15.6352C7.14738 15.6352 5.5971 15.0461 4.37464 14.0646ZM13.0384 14.2596C12.7202 12.5658 12.2458 10.9731 11.6972 9.51749C13.0465 9.28984 14.441 9.33679 15.8733 9.65851C15.5644 11.541 14.5169 13.1773 13.0384 14.2596Z" fill="#8A8882"/>
</svg>
