<svg width="30" height="30" viewBox="0 0 30 30" fill="none" xmlns="http://www.w3.org/2000/svg">
<path d="M8.4375 7.03125C8.4375 7.30938 8.35503 7.58126 8.20051 7.81252C8.04598 8.04378 7.82636 8.22402 7.5694 8.33046C7.31244 8.43689 7.02969 8.46474 6.75691 8.41048C6.48412 8.35622 6.23355 8.22229 6.03688 8.02562C5.84021 7.82895 5.70628 7.57838 5.65202 7.3056C5.59776 7.03281 5.62561 6.75006 5.73205 6.4931C5.83848 6.23614 6.01872 6.01652 6.24998 5.862C6.48124 5.70748 6.75312 5.625 7.03125 5.625C7.40421 5.625 7.7619 5.77316 8.02562 6.03688C8.28934 6.3006 8.4375 6.65829 8.4375 7.03125ZM22.9688 8.4375C23.2469 8.4375 23.5188 8.35503 23.75 8.20051C23.9813 8.04598 24.1615 7.82636 24.268 7.5694C24.3744 7.31244 24.4022 7.02969 24.348 6.75691C24.2937 6.48412 24.1598 6.23355 23.9631 6.03688C23.7665 5.84021 23.5159 5.70628 23.2431 5.65202C22.9703 5.59776 22.6876 5.62561 22.4306 5.73205C22.1736 5.83848 21.954 6.01872 21.7995 6.24998C21.645 6.48124 21.5625 6.75312 21.5625 7.03125C21.5625 7.40421 21.7107 7.7619 21.9744 8.02562C22.2381 8.28934 22.5958 8.4375 22.9688 8.4375ZM15 13.5938C14.7219 13.5938 14.45 13.6762 14.2187 13.8307C13.9875 13.9853 13.8072 14.2049 13.7008 14.4619C13.5944 14.7188 13.5665 15.0016 13.6208 15.2743C13.675 15.5471 13.809 15.7977 14.0056 15.9944C14.2023 16.191 14.4529 16.325 14.7257 16.3792C14.9984 16.4335 15.2812 16.4056 15.5381 16.2992C15.7951 16.1928 16.0147 16.0125 16.1693 15.7813C16.3238 15.55 16.4063 15.2781 16.4063 15C16.4063 14.627 16.2581 14.2694 15.9944 14.0056C15.7306 13.7419 15.373 13.5938 15 13.5938ZM7.03125 21.5625C6.75312 21.5625 6.48124 21.645 6.24998 21.7995C6.01872 21.954 5.83848 22.1736 5.73205 22.4306C5.62561 22.6876 5.59776 22.9703 5.65202 23.2431C5.70628 23.5159 5.84021 23.7665 6.03688 23.9631C6.23355 24.1598 6.48412 24.2937 6.75691 24.348C7.02969 24.4022 7.31244 24.3744 7.5694 24.268C7.82636 24.1615 8.04598 23.9813 8.20051 23.75C8.35503 23.5188 8.4375 23.2469 8.4375 22.9688C8.4375 22.5958 8.28934 22.2381 8.02562 21.9744C7.7619 21.7107 7.40421 21.5625 7.03125 21.5625ZM22.9688 21.5625C22.6906 21.5625 22.4187 21.645 22.1875 21.7995C21.9562 21.954 21.776 22.1736 21.6695 22.4306C21.5631 22.6876 21.5353 22.9703 21.5895 23.2431C21.6438 23.5159 21.7777 23.7665 21.9744 23.9631C22.1711 24.1598 22.4216 24.2937 22.6944 24.348C22.9672 24.4022 23.2499 24.3744 23.5069 24.268C23.7639 24.1615 23.9835 23.9813 24.138 23.75C24.2925 23.5188 24.375 23.2469 24.375 22.9688C24.375 22.5958 24.2268 22.2381 23.9631 21.9744C23.6994 21.7107 23.3417 21.5625 22.9688 21.5625Z" fill="#262626"/>
</svg>
